<svg width="30" height="30" viewBox="0 0 30 30" fill="none" xmlns="http://www.w3.org/2000/svg">
<rect x="1" y="1" width="28" height="28" rx="2" fill="#60BB46"/>
<g filter="url(#filter0_dd)">
<path d="M16.7578 8.91797C16.5637 8.91797 16.4062 9.07547 16.4062 9.26953C16.4062 9.46359 16.5637 9.62109 16.7578 9.62109C16.9519 9.62109 17.1094 9.46359 17.1094 9.26953C17.1094 9.07547 16.9519 8.91797 16.7578 8.91797Z" fill="#F8FAF8"/>
<path d="M13.2422 8.91797C13.0481 8.91797 12.8906 9.07547 12.8906 9.26953C12.8906 9.46359 13.0481 9.62109 13.2422 9.62109C13.4362 9.62109 13.5938 9.46359 13.5938 9.26953C13.5938 9.07547 13.4362 8.91797 13.2422 8.91797Z" fill="#F8FAF8"/>
<path d="M22.6332 16.5076C22.935 16.0547 23.0859 15.4896 23.0859 15C23.0859 14.2619 22.758 13.5761 22.1954 13.111C22.3199 12.8135 22.3828 12.504 22.3828 12.1875C22.3828 11.2082 21.8113 10.296 20.9616 9.87C21.0905 8.80076 20.3938 7.82067 19.3613 7.57068C18.9572 6.63647 18.0577 6 17.1094 6C16.2266 6 15.4348 6.5149 15 7.26619C14.5651 6.5149 13.7734 6 12.8906 6C11.9422 6 11.0427 6.63647 10.6387 7.57071C9.6 7.82229 8.90981 8.80726 9.03838 9.87C8.18872 10.296 7.61719 11.2082 7.61719 12.1875C7.61719 12.504 7.68012 12.8135 7.80464 13.111C7.24196 13.5761 6.91406 14.2619 6.91406 15C6.91406 15.4922 7.06629 16.0565 7.36677 16.5075C7.07314 16.922 6.91406 17.4133 6.91406 17.918C6.91406 18.5724 7.17942 19.1959 7.64879 19.6588C7.40748 21.1175 8.5708 22.5938 10.0781 22.5938C10.089 22.5938 10.0997 22.5936 10.1103 22.5933C10.61 23.4554 11.5376 24 12.5391 24C13.5828 24 14.5154 23.3735 15 22.4709C15.4846 23.3735 16.4172 24 17.4609 24C18.4624 24 19.39 23.4554 19.8897 22.5933C19.9003 22.5936 19.911 22.5938 19.9219 22.5938C21.2558 22.5938 22.3828 21.4185 22.3828 20.0273C22.3828 19.9089 22.3724 19.7871 22.3512 19.6588C22.8206 19.1959 23.0859 18.5725 23.0859 17.918C23.0859 17.4133 22.9269 16.922 22.6332 16.5076ZM14.6484 11.322C14.4414 11.2019 14.2014 11.1328 13.9453 11.1328C13.7511 11.1328 13.5938 11.2902 13.5938 11.4844C13.5938 11.6785 13.7511 11.8359 13.9453 11.8359C14.333 11.8359 14.6484 12.1514 14.6484 12.5391V19.2247C14.1327 18.6397 13.3785 18.2695 12.5391 18.2695C12.3449 18.2695 12.1875 18.4269 12.1875 18.6211C12.1875 18.8153 12.3449 18.9727 12.5391 18.9727C13.7022 18.9727 14.6484 19.9189 14.6484 21.082C14.6484 22.2826 13.6824 23.2969 12.5391 23.2969C11.7251 23.2969 10.9758 22.8155 10.6301 22.0706C10.5664 21.9333 10.422 21.8524 10.2715 21.8693C10.2467 21.8722 10.2219 21.8755 10.1972 21.8788C9.19669 22.0157 8.06993 20.8827 8.37495 19.6152C8.40627 19.4851 8.36092 19.3484 8.25802 19.2628C7.85077 18.9239 7.61719 18.4337 7.61719 17.918C7.61719 17.5991 7.70736 17.287 7.87516 17.0133C8.29683 17.3589 8.82132 17.5664 9.375 17.5664C9.56917 17.5664 9.72656 17.409 9.72656 17.2148C9.72656 17.0207 9.56917 16.8633 9.375 16.8633C8.42089 16.8633 7.61719 15.9925 7.61719 15C7.61719 14.3979 7.92407 13.8441 8.43816 13.5184C8.59654 13.4181 8.64832 13.2111 8.55582 13.0481C8.39955 12.7725 8.32031 12.4829 8.32031 12.1875C8.32031 11.2386 9.09382 10.3242 10.0781 10.3242C11.0145 10.3242 11.8359 11.1949 11.8359 12.1875C11.8359 12.3817 11.9933 12.5391 12.1875 12.5391C12.3817 12.5391 12.5391 12.3817 12.5391 12.1875C12.5391 10.7964 11.4121 9.62109 10.0781 9.62109C9.96042 9.62109 9.84335 9.63062 9.72744 9.64866C9.72727 9.63941 9.72656 9.63041 9.72656 9.62109C9.72656 8.83651 10.3635 8.21484 11.1328 8.21484C11.5084 8.21484 11.8616 8.36113 12.1275 8.6267C12.2648 8.76391 12.4874 8.76377 12.6246 8.62645C12.7618 8.48906 12.7617 8.26649 12.6244 8.12927C12.3037 7.80889 11.898 7.60457 11.4584 7.53686C11.7684 7.07662 12.284 6.70312 12.8906 6.70312C13.827 6.70312 14.6484 7.5738 14.6484 8.56641V11.322ZM20.625 17.5664C21.1787 17.5664 21.7032 17.3589 22.1249 17.0134C22.2926 17.2871 22.3828 17.5991 22.3828 17.918C22.3828 18.4337 22.1492 18.9239 21.742 19.2628C21.6391 19.3484 21.5938 19.4851 21.6251 19.6152C21.6624 19.77 21.6797 19.901 21.6797 20.0273C21.6797 21.1186 20.6927 22.0005 19.8028 21.8788C19.7781 21.8755 19.7533 21.8721 19.7285 21.8693C19.5778 21.8523 19.4336 21.9333 19.3699 22.0706C19.0242 22.8155 18.2748 23.2969 17.4609 23.2969C16.3176 23.2969 15.3516 22.2826 15.3516 21.082C15.3516 19.9189 16.2978 18.9727 17.4609 18.9727C17.6551 18.9727 17.8125 18.8153 17.8125 18.6211C17.8125 18.4269 17.6551 18.2695 17.4609 18.2695C16.6215 18.2695 15.8673 18.6397 15.3516 19.2247V12.5391C15.3516 12.1514 15.667 11.8359 16.0547 11.8359C16.2488 11.8359 16.4062 11.6785 16.4062 11.4844C16.4062 11.2902 16.2488 11.1328 16.0547 11.1328C15.7986 11.1328 15.5586 11.2019 15.3516 11.322V8.56641C15.3516 7.5738 16.173 6.70312 17.1094 6.70312C17.716 6.70312 18.2316 7.07662 18.5416 7.53682C18.102 7.60453 17.6964 7.80886 17.3756 8.12924C17.2382 8.26645 17.2381 8.48903 17.3753 8.62642C17.5125 8.76381 17.7352 8.76391 17.8725 8.6267C18.1384 8.36113 18.4916 8.21484 18.8672 8.21484C19.6404 8.21484 20.2734 8.84017 20.2734 9.62109C20.2734 9.63037 20.2727 9.63941 20.2726 9.64866C20.1566 9.63062 20.0396 9.62109 19.9219 9.62109C18.5879 9.62109 17.4609 10.7964 17.4609 12.1875C17.4609 12.3817 17.6184 12.5391 17.8125 12.5391C18.0066 12.5391 18.1641 12.3817 18.1641 12.1875C18.1641 11.1949 18.9855 10.3242 19.9219 10.3242C20.9056 10.3242 21.6797 11.2382 21.6797 12.1875C21.6797 12.4829 21.6004 12.7725 21.4442 13.0481C21.3517 13.2111 21.4035 13.4181 21.5619 13.5184C22.0759 13.8441 22.3828 14.3979 22.3828 15C22.3828 15.996 21.5763 16.8633 20.625 16.8633C20.4309 16.8633 20.2734 17.0207 20.2734 17.2148C20.2734 17.409 20.4309 17.5664 20.625 17.5664Z" fill="#F8FAF8"/>
<path d="M13.8558 13.5253C13.7263 13.3806 13.5041 13.3682 13.3594 13.4977C12.232 14.5061 10.4297 13.7002 10.4297 12.1875C10.4297 11.9933 10.2723 11.8359 10.0781 11.8359C9.88396 11.8359 9.72656 11.9933 9.72656 12.1875C9.72656 13.4079 10.6198 14.4233 11.7867 14.6153C11.6514 15.0417 11.2519 15.3516 10.7812 15.3516C10.5871 15.3516 10.4297 15.509 10.4297 15.7031C10.4297 15.8973 10.5871 16.0547 10.7812 16.0547C11.6376 16.0547 12.3524 15.4391 12.5075 14.6273C12.9964 14.5633 13.4566 14.3541 13.8281 14.0217C13.9728 13.8923 13.9852 13.67 13.8558 13.5253Z" fill="#F8FAF8"/>
<path d="M10.0781 19.6758C9.88396 19.6758 9.72656 19.8332 9.72656 20.0273C9.72656 20.2215 9.88396 20.3789 10.0781 20.3789C11.0145 20.3789 11.8359 21.2496 11.8359 22.2422C11.8359 22.4364 11.9933 22.5938 12.1875 22.5938C12.3817 22.5938 12.5391 22.4364 12.5391 22.2422C12.5391 20.8511 11.4121 19.6758 10.0781 19.6758Z" fill="#F8FAF8"/>
<path d="M12.8907 16.8633C11.6994 16.8633 10.6765 17.5167 10.1379 18.4667C10.0422 18.6356 10.1015 18.8502 10.2704 18.9459C10.4393 19.0416 10.6539 18.9824 10.7496 18.8134C11.1692 18.0732 11.9654 17.5664 12.8907 17.5664C13.0848 17.5664 13.2422 17.409 13.2422 17.2148C13.2422 17.0207 13.0848 16.8633 12.8907 16.8633Z" fill="#F8FAF8"/>
<path d="M19.2188 15.3516C18.7482 15.3516 18.3486 15.0417 18.2133 14.6153C19.3802 14.4233 20.2734 13.4079 20.2734 12.1875C20.2734 11.9933 20.116 11.8359 19.9219 11.8359C19.7277 11.8359 19.5703 11.9933 19.5703 12.1875C19.5703 13.1568 18.7818 13.9453 17.8125 13.9453C17.3795 13.9453 16.9634 13.7863 16.6406 13.4977C16.496 13.3682 16.2737 13.3806 16.1442 13.5253C16.0148 13.67 16.0272 13.8923 16.1719 14.0217C16.5434 14.3541 17.0036 14.5633 17.4925 14.6273C17.6476 15.4391 18.3625 16.0547 19.2188 16.0547C19.4129 16.0547 19.5703 15.8973 19.5703 15.7031C19.5703 15.509 19.4129 15.3516 19.2188 15.3516Z" fill="#F8FAF8"/>
<path d="M19.9219 19.6758C18.5879 19.6758 17.4609 20.8511 17.4609 22.2422C17.4609 22.4364 17.6184 22.5938 17.8125 22.5938C18.0066 22.5938 18.1641 22.4364 18.1641 22.2422C18.1641 21.2496 18.9855 20.3789 19.9219 20.3789C20.116 20.3789 20.2734 20.2215 20.2734 20.0273C20.2734 19.8332 20.116 19.6758 19.9219 19.6758Z" fill="#F8FAF8"/>
<path d="M19.8621 18.4667C19.3249 17.5189 18.3034 16.8633 17.1094 16.8633C16.9152 16.8633 16.7578 17.0207 16.7578 17.2148C16.7578 17.409 16.9152 17.5664 17.1094 17.5664C18.034 17.5664 18.8308 18.073 19.2504 18.8134C19.3462 18.9826 19.5609 19.0416 19.7296 18.9459C19.8985 18.8502 19.9578 18.6356 19.8621 18.4667Z" fill="#F8FAF8"/>
</g>
<defs>
<filter id="filter0_dd" x="0" y="0" width="30" height="30" filterUnits="userSpaceOnUse" color-interpolation-filters="sRGB">
<feFlood flood-opacity="0" result="BackgroundImageFix"/>
<feColorMatrix in="SourceAlpha" type="matrix" values="0 0 0 0 0 0 0 0 0 0 0 0 0 0 0 0 0 0 127 0"/>
<feOffset dx="2" dy="2"/>
<feGaussianBlur stdDeviation="2"/>
<feColorMatrix type="matrix" values="0 0 0 0 0.256115 0 0 0 0 0.591667 0 0 0 0 0.160243 0 0 0 1 0"/>
<feBlend mode="normal" in2="BackgroundImageFix" result="effect1_dropShadow"/>
<feColorMatrix in="SourceAlpha" type="matrix" values="0 0 0 0 0 0 0 0 0 0 0 0 0 0 0 0 0 0 127 0"/>
<feOffset dx="-2" dy="-2"/>
<feGaussianBlur stdDeviation="2"/>
<feColorMatrix type="matrix" values="0 0 0 0 0.498652 0 0 0 0 0.829167 0 0 0 0 0.404219 0 0 0 1 0"/>
<feBlend mode="normal" in2="effect1_dropShadow" result="effect2_dropShadow"/>
<feBlend mode="normal" in="SourceGraphic" in2="effect2_dropShadow" result="shape"/>
</filter>
</defs>
</svg>
