<svg width="48" height="48" viewBox="0 0 48 48" fill="none" xmlns="http://www.w3.org/2000/svg">
<rect width="48" height="48" fill="#C9CCD0"/>
<rect width="1200" height="710" transform="translate(-798 -240)" fill="#F0F0F0"/>
<g filter="url(#filter0_i)">
<rect width="1000" height="646" transform="translate(-598 -176)" fill="#F0F0F0"/>
<g filter="url(#filter1_d)">
<rect x="-86" y="-25" width="220" height="166" rx="8" fill="#F8FAF8"/>
</g>
<path d="M46.6563 20.875L40.4063 43.5313V26.3438C40.4063 25.515 40.077 24.7201 39.491 24.1341C38.9049 23.548 38.1101 23.2188 37.2812 23.2188V16.9688H42.75C43.2634 16.9672 43.7721 17.0672 44.2467 17.263C44.7213 17.4587 45.1526 17.7464 45.5156 18.1094C45.8786 18.4725 46.1663 18.9037 46.3621 19.3783C46.5578 19.853 46.6578 20.3616 46.6563 20.875Z" fill="#3896D2"/>
<path d="M44.3125 26.3438V29.375L40.4062 43.5312V26.3438C40.4062 25.5149 40.077 24.7201 39.491 24.134C38.9049 23.548 38.1101 23.2188 37.2812 23.2188V16.9688H41.1875V23.2188C42.0163 23.2188 42.8112 23.548 43.3972 24.134C43.9833 24.7201 44.3125 25.5149 44.3125 26.3438Z" fill="#0E86D2"/>
<path d="M40.4062 26.3438V43.5312C40.4062 44.3601 40.077 45.1549 39.491 45.741C38.9049 46.327 38.1101 46.6562 37.2812 46.6562H4.46875C3.63995 46.6562 2.84509 46.327 2.25904 45.741C1.67299 45.1549 1.34375 44.3601 1.34375 43.5312V22.4375C1.34375 21.6087 1.67299 20.8138 2.25904 20.2278C2.84509 19.6417 3.63995 19.3125 4.46875 19.3125H13.8438L17.75 23.2188H37.2812C38.1101 23.2188 38.9049 23.548 39.491 24.134C40.077 24.7201 40.4062 25.5149 40.4062 26.3438ZM28.6875 38.0625V31.8125H24V27.125H17.75V31.8125H13.0625V38.0625H17.75V42.75H24V38.0625H28.6875Z" fill="#3896D2"/>
<path d="M6.8125 43.5312V22.4375C6.8125 21.6087 7.14174 20.8138 7.72779 20.2278C8.31384 19.6417 9.1087 19.3125 9.9375 19.3125H4.46875C3.63995 19.3125 2.84509 19.6417 2.25904 20.2278C1.67299 20.8138 1.34375 21.6087 1.34375 22.4375V43.5312C1.34375 44.3601 1.67299 45.1549 2.25904 45.741C2.84509 46.327 3.63995 46.6562 4.46875 46.6562H9.9375C9.1087 46.6562 8.31384 46.327 7.72779 45.741C7.14174 45.1549 6.8125 44.3601 6.8125 43.5312Z" fill="#0E86D2"/>
<path d="M37.2812 16.9688V23.2188H34.1562V4.46875H37.2812V16.9688Z" fill="#E4EBF0"/>
<path d="M28.6875 31.8125V38.0625H24V42.75H17.75V38.0625H13.0625V31.8125H17.75V27.125H24V31.8125H28.6875Z" fill="#E4EBF0"/>
<path d="M13.0625 31.8125H15.4062V38.0625H13.0625V31.8125Z" fill="#B4D7F0"/>
<path d="M17.75 27.125H20.0938V31.8125H17.75V27.125Z" fill="#B4D7F0"/>
<path d="M17.75 38.0625H20.0938V42.75H17.75V38.0625Z" fill="#B4D7F0"/>
<path d="M7.59375 1.34375V19.3125H13.8438L17.75 23.2188H34.1562V4.46875V1.34375H7.59375Z" fill="#E4EBF0"/>
<path d="M34.1562 4.46875H35.7188V23.2188H34.1562V4.46875Z" fill="#B4D7F0"/>
<path d="M7.59375 1.34375H11.5V19.3125H7.59375V1.34375Z" fill="#B4D7F0"/>
<path d="M21.6562 23.2188H17.75L13.8438 19.3125H17.75L21.6562 23.2188Z" fill="#B4D7F0"/>
<path d="M24 9.9375H31.8125V11.5H24V9.9375Z" fill="#062D42"/>
<path d="M24 13.0625H31.8125V14.625H24V13.0625Z" fill="#062D42"/>
<path d="M24 16.1875H31.8125V17.75H24V16.1875Z" fill="#062D42"/>
<path d="M24 19.3125H31.8125V20.875H24V19.3125Z" fill="#062D42"/>
<path d="M15.3062 11.3578C15.8785 11.5474 16.4965 11.5474 17.0688 11.3578C17.2073 11.8468 17.5011 12.2775 17.9058 12.585C18.3105 12.8925 18.8042 13.0601 19.3125 13.0625H20.0938C20.301 13.0625 20.4997 13.1448 20.6462 13.2913C20.7927 13.4378 20.875 13.6365 20.875 13.8438V16.1875H22.4375V13.8438C22.4375 13.2221 22.1906 12.626 21.751 12.1865C21.3115 11.7469 20.7154 11.5 20.0938 11.5H19.3125C19.1053 11.5 18.9066 11.4177 18.7601 11.2712C18.6136 11.1247 18.5312 10.926 18.5312 10.7188V10.4203C19.0319 9.85633 19.3097 9.12913 19.3125 8.375V6.8125C19.3125 5.9837 18.9833 5.18884 18.3972 4.60279C17.8112 4.01674 17.0163 3.6875 16.1875 3.6875C15.3587 3.6875 14.5638 4.01674 13.9778 4.60279C13.3917 5.18884 13.0625 5.9837 13.0625 6.8125V8.375C13.0653 9.12913 13.3431 9.85633 13.8438 10.4203V10.7188C13.8438 10.926 13.7614 11.1247 13.6149 11.2712C13.4684 11.4177 13.2697 11.5 13.0625 11.5H12.2812C11.6596 11.5 11.0635 11.7469 10.624 12.1865C10.1844 12.626 9.9375 13.2221 9.9375 13.8438V16.1875H11.5V13.8438C11.5 13.6365 11.5823 13.4378 11.7288 13.2913C11.8753 13.1448 12.074 13.0625 12.2812 13.0625H13.0625C13.5708 13.0601 14.0645 12.8925 14.4692 12.585C14.8739 12.2775 15.1677 11.8468 15.3062 11.3578ZM14.625 6.8125C14.625 6.3981 14.7896 6.00067 15.0826 5.70765C15.3757 5.41462 15.7731 5.25 16.1875 5.25C16.6019 5.25 16.9993 5.41462 17.2924 5.70765C17.5854 6.00067 17.75 6.3981 17.75 6.8125V8.375C17.75 8.7894 17.5854 9.18683 17.2924 9.47985C16.9993 9.77288 16.6019 9.9375 16.1875 9.9375C15.7731 9.9375 15.3757 9.77288 15.0826 9.47985C14.7896 9.18683 14.625 8.7894 14.625 8.375V6.8125Z" fill="#062D42"/>
<path d="M24.7812 8.375H31.0312C31.2385 8.375 31.4372 8.29269 31.5837 8.14618C31.7302 7.99966 31.8125 7.80095 31.8125 7.59375V4.46875C31.8125 4.26155 31.7302 4.06284 31.5837 3.91632C31.4372 3.76981 31.2385 3.6875 31.0312 3.6875H24.7812C24.574 3.6875 24.3753 3.76981 24.2288 3.91632C24.0823 4.06284 24 4.26155 24 4.46875V7.59375C24 7.80095 24.0823 7.99966 24.2288 8.14618C24.3753 8.29269 24.574 8.375 24.7812 8.375ZM25.5625 5.25H30.25V6.8125H25.5625V5.25Z" fill="#062D42"/>
<path d="M47.4375 20.875C47.4363 19.6322 46.942 18.4406 46.0632 17.5618C45.1844 16.683 43.9928 16.1887 42.75 16.1875H38.0625V4.46875C38.0625 4.26155 37.9802 4.06284 37.8337 3.91632C37.6872 3.76981 37.4884 3.6875 37.2812 3.6875H34.9375V1.34375C34.9375 1.13655 34.8552 0.937836 34.7087 0.791323C34.5622 0.64481 34.3634 0.5625 34.1562 0.5625H7.59375C7.38655 0.5625 7.18784 0.64481 7.04132 0.791323C6.89481 0.937836 6.8125 1.13655 6.8125 1.34375V18.5312H4.46875C3.43313 18.5325 2.44028 18.9444 1.70798 19.6767C0.975689 20.409 0.563741 21.4019 0.5625 22.4375V43.5312C0.563741 44.5669 0.975689 45.5597 1.70798 46.292C2.44028 47.0243 3.43313 47.4363 4.46875 47.4375H37.2812C38.2861 47.434 39.2509 47.0434 39.9752 46.3469C40.6995 45.6504 41.1275 44.7016 41.1703 43.6977L47.4094 21.0828C47.428 21.0151 47.4375 20.9452 47.4375 20.875ZM36.5 5.25V22.4375H34.9375V5.25H36.5ZM8.375 2.125H33.375V22.4375H18.0734L14.3961 18.7602C14.2496 18.6136 14.0509 18.5313 13.8438 18.5312H8.375V2.125ZM39.625 43.5312C39.625 44.1529 39.3781 44.749 38.9385 45.1885C38.499 45.6281 37.9029 45.875 37.2812 45.875H4.46875C3.84715 45.875 3.25101 45.6281 2.81147 45.1885C2.37193 44.749 2.125 44.1529 2.125 43.5312V22.4375C2.125 21.8159 2.37193 21.2198 2.81147 20.7802C3.25101 20.3407 3.84715 20.0938 4.46875 20.0938H13.5203L17.1977 23.7711C17.3441 23.9176 17.5428 24 17.75 24H37.2812C37.9029 24 38.499 24.2469 38.9385 24.6865C39.3781 25.126 39.625 25.7221 39.625 26.3438V43.5312ZM41.1875 37.7617V26.3438C41.1864 25.4436 40.8749 24.5713 40.3057 23.874C39.7364 23.1767 38.9442 22.697 38.0625 22.5156V17.75H42.75C43.5618 17.7496 44.3418 18.0651 44.9251 18.6297C45.5084 19.1943 45.849 19.9637 45.875 20.775L41.1875 37.7617Z" fill="#062D42"/>
<path d="M28.6875 31.0312H24.7812V27.125C24.7812 26.9178 24.6989 26.7191 24.5524 26.5726C24.4059 26.4261 24.2072 26.3438 24 26.3438H17.75C17.5428 26.3438 17.3441 26.4261 17.1976 26.5726C17.0511 26.7191 16.9688 26.9178 16.9688 27.125V31.0312H13.0625C12.8553 31.0312 12.6566 31.1136 12.5101 31.2601C12.3636 31.4066 12.2812 31.6053 12.2812 31.8125V38.0625C12.2812 38.2697 12.3636 38.4684 12.5101 38.6149C12.6566 38.7614 12.8553 38.8438 13.0625 38.8438H16.9688V42.75C16.9688 42.9572 17.0511 43.1559 17.1976 43.3024C17.3441 43.4489 17.5428 43.5312 17.75 43.5312H24C24.2072 43.5312 24.4059 43.4489 24.5524 43.3024C24.6989 43.1559 24.7812 42.9572 24.7812 42.75V38.8438H28.6875C28.8947 38.8438 29.0934 38.7614 29.2399 38.6149C29.3864 38.4684 29.4688 38.2697 29.4688 38.0625V31.8125C29.4688 31.6053 29.3864 31.4066 29.2399 31.2601C29.0934 31.1136 28.8947 31.0312 28.6875 31.0312ZM27.9062 37.2812H24C23.7928 37.2812 23.5941 37.3636 23.4476 37.5101C23.3011 37.6566 23.2188 37.8553 23.2188 38.0625V41.9688H18.5312V38.0625C18.5312 37.8553 18.4489 37.6566 18.3024 37.5101C18.1559 37.3636 17.9572 37.2812 17.75 37.2812H13.8438V32.5938H17.75C17.9572 32.5938 18.1559 32.5114 18.3024 32.3649C18.4489 32.2184 18.5312 32.0197 18.5312 31.8125V27.9062H23.2188V31.8125C23.2188 32.0197 23.3011 32.2184 23.4476 32.3649C23.5941 32.5114 23.7928 32.5938 24 32.5938H27.9062V37.2812Z" fill="#062D42"/>
</g>
<defs>
<filter id="filter0_i" x="-598" y="-176" width="1000" height="646" filterUnits="userSpaceOnUse" color-interpolation-filters="sRGB">
<feFlood flood-opacity="0" result="BackgroundImageFix"/>
<feBlend mode="normal" in="SourceGraphic" in2="BackgroundImageFix" result="shape"/>
<feColorMatrix in="SourceAlpha" type="matrix" values="0 0 0 0 0 0 0 0 0 0 0 0 0 0 0 0 0 0 127 0" result="hardAlpha"/>
<feOffset dy="-1"/>
<feComposite in2="hardAlpha" operator="arithmetic" k2="-1" k3="1"/>
<feColorMatrix type="matrix" values="0 0 0 0 0.941176 0 0 0 0 0.941176 0 0 0 0 0.941176 0 0 0 1 0"/>
<feBlend mode="normal" in2="shape" result="effect1_innerShadow"/>
</filter>
<filter id="filter1_d" x="-96" y="-30" width="240" height="186" filterUnits="userSpaceOnUse" color-interpolation-filters="sRGB">
<feFlood flood-opacity="0" result="BackgroundImageFix"/>
<feColorMatrix in="SourceAlpha" type="matrix" values="0 0 0 0 0 0 0 0 0 0 0 0 0 0 0 0 0 0 127 0"/>
<feOffset dy="5"/>
<feGaussianBlur stdDeviation="5"/>
<feColorMatrix type="matrix" values="0 0 0 0 0 0 0 0 0 0 0 0 0 0 0 0 0 0 0.05 0"/>
<feBlend mode="normal" in2="BackgroundImageFix" result="effect1_dropShadow"/>
<feBlend mode="normal" in="SourceGraphic" in2="effect1_dropShadow" result="shape"/>
</filter>
</defs>
</svg>
