<svg width="46" height="50" viewBox="0 0 46 50" fill="none" xmlns="http://www.w3.org/2000/svg">
<rect width="46" height="50" fill="#C9CCD0"/>
<rect width="1200" height="710" transform="translate(-555 -239)" fill="#F0F0F0"/>
<g filter="url(#filter0_i)">
<rect width="1000" height="646" transform="translate(-355 -175)" fill="#F0F0F0"/>
<g filter="url(#filter1_d)">
<rect x="-87" y="-24" width="220" height="166" rx="8" fill="#F8FAF8"/>
</g>
<path d="M44.4837 24.8341C44.4676 22.7502 43.3578 20.9404 41.7112 19.915C42.188 19.0587 42.4783 18.0858 42.4702 17.037C42.45 14.4218 40.7185 12.0289 38.347 11.2201C38.3439 11.1913 39.1979 8.61128 37.0526 6.49654C36.3097 5.76597 35.3331 5.27056 34.2471 5.13248C33.4383 2.8398 31.2407 0.912456 28.6734 0.93228C25.4372 0.95728 22.8368 3.89351 22.8618 7.12974C22.8368 3.89351 20.1913 0.997906 16.9551 1.02291C14.3878 1.04273 12.2202 3.00386 11.4471 5.30875C10.3633 5.46363 9.39451 5.97408 8.66297 6.71607C6.58338 8.83033 7.44168 11.4492 7.44178 11.459C5.08299 12.3044 3.38875 14.7239 3.40897 17.339C3.41707 18.3878 3.72244 19.3562 4.21239 20.2049C2.58182 21.2556 1.50018 23.0825 1.51629 25.1664C1.52752 26.6222 2.0951 28.2892 3.06922 29.3537C2.14168 30.399 1.56727 31.7638 1.57899 33.2715C1.59295 35.083 2.4452 36.676 3.74539 37.7413C3.64237 38.1844 3.57362 38.6401 3.57733 39.1157C3.60233 42.3519 6.24783 45.2475 9.48407 45.2225C9.70574 45.2208 9.91639 45.1782 10.131 45.1521C11.235 47.4835 13.6011 49.0971 16.35 49.0758C20.1253 49.0466 23.1597 45.6696 23.1306 41.8943C23.1598 45.6696 26.2462 48.9994 30.0215 48.9702C32.7704 48.9489 35.1112 47.299 36.1791 44.9507C36.3941 44.9735 36.6054 45.0128 36.827 45.0112C40.0633 44.9862 42.6637 42.05 42.6387 38.8137C42.6349 38.3381 42.5592 37.8836 42.4493 37.4421C43.733 36.357 44.5604 34.7509 44.5464 32.9395C44.5348 31.4317 43.9392 30.0759 42.9957 29.0452C43.954 27.9647 44.495 26.2885 44.4837 24.8341Z" fill="#FFA8BE"/>
<path d="M27.8828 10.0586C28.4219 10.0586 28.8594 9.62109 28.8594 9.08203C28.8594 8.54297 28.4219 8.10547 27.8828 8.10547C27.3438 8.10547 26.9062 8.54297 26.9062 9.08203C26.9062 9.62109 27.3438 10.0586 27.8828 10.0586Z" fill="black"/>
<path d="M18.1172 10.0586C18.6562 10.0586 19.0938 9.62109 19.0938 9.08203C19.0938 8.54297 18.6562 8.10547 18.1172 8.10547C17.5781 8.10547 17.1406 8.54297 17.1406 9.08203C17.1406 9.62109 17.5781 10.0586 18.1172 10.0586Z" fill="black"/>
<path d="M0.539062 33.1055C0.539062 34.9234 1.27617 36.6553 2.57998 37.9412C1.90967 41.9932 5.14111 46.0938 9.32812 46.0938C9.3584 46.0938 9.38818 46.0933 9.41738 46.0924C10.8056 48.4871 13.3823 50 16.1641 50C19.0633 50 21.6539 48.2598 23 45.7525C24.3461 48.2598 26.9367 50 29.8359 50C32.6177 50 35.1944 48.4871 36.5826 46.0924C36.6119 46.0933 36.6416 46.0938 36.6719 46.0938C40.3773 46.0938 43.5078 42.8291 43.5078 38.9648C43.5078 38.6358 43.4789 38.2975 43.42 37.9412C44.7238 36.6553 45.4609 34.9235 45.4609 33.1055C45.4609 31.7035 45.019 30.339 44.2034 29.1877C45.0416 27.9297 45.4609 26.3601 45.4609 25C45.4609 22.9496 44.5501 21.0446 42.9871 19.7528C43.333 18.9263 43.5078 18.0666 43.5078 17.1875C43.5078 14.4673 41.9203 11.9333 39.5601 10.75C39.9182 7.77988 37.9828 5.05742 35.1147 4.36299C33.9922 1.76797 31.4937 0 28.8594 0C26.4072 0 24.2079 1.43027 23 3.51719C21.792 1.43027 19.5927 0 17.1406 0C14.5062 0 12.0076 1.76797 10.8853 4.36309C8 5.06191 6.08281 7.79795 6.43994 10.75C4.07979 11.9332 2.49219 14.4673 2.49219 17.1875C2.49219 18.0666 2.66699 18.9263 3.01289 19.7528C1.4499 21.0447 0.539062 22.9496 0.539062 25C0.539062 26.3672 0.961914 27.9348 1.79658 29.1876C0.980957 30.339 0.539062 31.7035 0.539062 33.1055ZM28.8594 1.95312C30.5445 1.95312 31.9766 2.99063 32.8378 4.26895C31.6167 4.45703 30.4899 5.02461 29.5989 5.91455C29.2173 6.2957 29.2169 6.91396 29.598 7.29561C29.9792 7.67725 30.5977 7.67754 30.9791 7.29639C31.7179 6.55869 32.699 6.15234 33.7422 6.15234C35.8899 6.15234 37.6484 7.88936 37.6484 10.0586C37.6484 10.0844 37.6465 10.1095 37.646 10.1352C37.324 10.0851 36.9988 10.0586 36.6719 10.0586C32.9664 10.0586 29.8359 13.3232 29.8359 17.1875C29.8359 17.7269 30.2732 18.1641 30.8125 18.1641C31.3518 18.1641 31.7891 17.7269 31.7891 17.1875C31.7891 14.4304 34.0707 12.0117 36.6719 12.0117C39.4045 12.0117 41.5547 14.5505 41.5547 17.1875C41.5547 18.0081 41.3346 18.8124 40.9005 19.5779C40.6437 20.031 40.7875 20.6059 41.2274 20.8846C42.6554 21.7892 43.5078 23.3276 43.5078 25C43.5078 27.7667 41.2675 30.1758 38.625 30.1758C38.0857 30.1758 37.6484 30.613 37.6484 31.1523C37.6484 31.6917 38.0857 32.1289 38.625 32.1289C40.1631 32.1289 41.62 31.5524 42.7913 30.5929C43.2573 31.3529 43.5078 32.2197 43.5078 33.1055C43.5078 34.5382 42.859 35.8998 41.7278 36.8411C41.4419 37.079 41.316 37.4586 41.403 37.8201C41.5065 38.2501 41.5547 38.6139 41.5547 38.9647C41.5547 41.996 38.813 44.4458 36.3411 44.1079C36.2725 44.0985 36.2037 44.0893 36.1347 44.0814C35.716 44.0341 35.3155 44.2593 35.1387 44.6406C34.1783 46.7099 32.0968 48.0469 29.8359 48.0469C26.6599 48.0469 23.9766 45.2294 23.9766 41.8945C23.9766 38.6637 26.6051 36.0352 29.8359 36.0352C30.3752 36.0352 30.8125 35.5979 30.8125 35.0586C30.8125 34.5192 30.3752 34.082 29.8359 34.082C27.5042 34.082 25.4093 35.1102 23.9766 36.7353V18.1641C23.9766 17.0871 24.8527 16.2109 25.9297 16.2109C26.4689 16.2109 26.9062 15.7737 26.9062 15.2344C26.9062 14.695 26.4689 14.2578 25.9297 14.2578C25.2185 14.2578 24.5516 14.4498 23.9766 14.7833V7.12891C23.9766 4.37168 26.2582 1.95312 28.8594 1.95312ZM4.77266 20.8846C5.2126 20.6059 5.35644 20.031 5.09951 19.5779C4.66543 18.8124 4.44531 18.0081 4.44531 17.1875C4.44531 14.5518 6.59395 12.0117 9.32812 12.0117C11.9293 12.0117 14.2109 14.4304 14.2109 17.1875C14.2109 17.7269 14.6481 18.1641 15.1875 18.1641C15.7269 18.1641 16.1641 17.7269 16.1641 17.1875C16.1641 13.3232 13.0336 10.0586 9.32812 10.0586C9.00117 10.0586 8.67598 10.0851 8.354 10.1352C8.35352 10.1095 8.35156 10.0845 8.35156 10.0586C8.35156 7.8792 10.1208 6.15234 12.2578 6.15234C13.301 6.15234 14.2822 6.55869 15.0207 7.29639C15.4022 7.67754 16.0205 7.67715 16.4018 7.2957C16.7829 6.91406 16.7826 6.2958 16.4011 5.91465C15.5102 5.02471 14.3833 4.45713 13.1621 4.26904C14.0233 2.99063 15.4555 1.95312 17.1406 1.95312C19.7418 1.95312 22.0234 4.37168 22.0234 7.12891V14.7833C21.4484 14.4498 20.7815 14.2578 20.0703 14.2578C19.531 14.2578 19.0938 14.695 19.0938 15.2344C19.0938 15.7737 19.531 16.2109 20.0703 16.2109C21.1473 16.2109 22.0234 17.0871 22.0234 18.1641V36.7353C20.5907 35.1102 18.4958 34.082 16.1641 34.082C15.6247 34.082 15.1875 34.5192 15.1875 35.0586C15.1875 35.5979 15.6247 36.0352 16.1641 36.0352C19.3949 36.0352 22.0234 38.6637 22.0234 41.8945C22.0234 45.2294 19.3401 48.0469 16.1641 48.0469C13.9031 48.0469 11.8218 46.7099 10.8614 44.6406C10.6844 44.2593 10.2834 44.0344 9.86533 44.0814C9.79629 44.0894 9.72764 44.0985 9.65898 44.1079C6.87969 44.488 3.7498 41.3408 4.59707 37.8201C4.68408 37.4585 4.5581 37.079 4.27227 36.8411C3.14102 35.8998 2.49219 34.5382 2.49219 33.1055C2.49219 32.2196 2.74268 31.3527 3.20879 30.5926C4.38008 31.5525 5.83701 32.1289 7.375 32.1289C7.91436 32.1289 8.35156 31.6917 8.35156 31.1523C8.35156 30.613 7.91436 30.1758 7.375 30.1758C4.72471 30.1758 2.49219 27.7568 2.49219 25C2.49219 23.3276 3.34463 21.7892 4.77266 20.8846Z" fill="black"/>
<path d="M14.0742 23.9313C13.6982 25.1157 12.5885 25.9766 11.2812 25.9766C10.7419 25.9766 10.3047 26.4138 10.3047 26.9531C10.3047 27.4925 10.7419 27.9297 11.2812 27.9297C13.6599 27.9297 15.6455 26.2197 16.0764 23.9646C17.4345 23.787 18.7127 23.2059 19.7448 22.2825C20.1468 21.9229 20.1811 21.3056 19.8216 20.9036C19.462 20.5017 18.8447 20.4673 18.4427 20.8269C15.311 23.6281 10.3047 21.3894 10.3047 17.1875C10.3047 16.6481 9.86748 16.2109 9.32812 16.2109C8.78877 16.2109 8.35156 16.6481 8.35156 17.1875C8.35156 20.5776 10.8327 23.3979 14.0742 23.9313Z" fill="black"/>
<path d="M9.32812 37.9883C8.78877 37.9883 8.35156 38.4255 8.35156 38.9648C8.35156 39.5042 8.78877 39.9414 9.32812 39.9414C11.9293 39.9414 14.2109 42.3601 14.2109 45.1172C14.2109 45.6565 14.6481 46.0938 15.1875 46.0938C15.7269 46.0938 16.1641 45.6565 16.1641 45.1172C16.1641 41.2529 13.0336 37.9883 9.32812 37.9883Z" fill="black"/>
<path d="M17.1408 30.1758C13.8316 30.1758 10.9904 31.9907 9.49433 34.6297C9.22841 35.0989 9.39315 35.6949 9.8623 35.9608C10.3315 36.2268 10.9274 36.0621 11.1934 35.5929C12.359 33.5366 14.5705 32.1289 17.1408 32.1289C17.6802 32.1289 18.1174 31.6917 18.1174 31.1523C18.1174 30.613 17.6802 30.1758 17.1408 30.1758Z" fill="black"/>
<path d="M26.1784 20.9036C25.8188 21.3056 25.8532 21.9229 26.2552 22.2825C27.2873 23.2059 28.5656 23.787 29.9237 23.9646C30.3545 26.2197 32.3402 27.9297 34.7188 27.9297C35.258 27.9297 35.6953 27.4925 35.6953 26.9531C35.6953 26.4138 35.258 25.9766 34.7188 25.9766C33.4115 25.9766 32.3018 25.1157 31.9258 23.9313C35.1673 23.3979 37.6485 20.5776 37.6485 17.1875C37.6485 16.6481 37.2112 16.2109 36.6719 16.2109C36.1326 16.2109 35.6953 16.6481 35.6953 17.1875C35.6953 19.8799 33.5049 22.0703 30.8125 22.0703C29.6098 22.0703 28.4538 21.6287 27.5573 20.8269C27.1555 20.4673 26.538 20.5016 26.1784 20.9036Z" fill="black"/>
<path d="M36.6719 37.9883C32.9664 37.9883 29.8359 41.2529 29.8359 45.1172C29.8359 45.6565 30.2732 46.0938 30.8125 46.0938C31.3518 46.0938 31.7891 45.6565 31.7891 45.1172C31.7891 42.3601 34.0707 39.9414 36.6719 39.9414C37.2111 39.9414 37.6484 39.5042 37.6484 38.9648C37.6484 38.4255 37.2111 37.9883 36.6719 37.9883Z" fill="black"/>
<path d="M34.8065 35.5929C35.0728 36.0627 35.6692 36.2266 36.1377 35.9609C36.6069 35.695 36.7717 35.099 36.5059 34.6298C35.0135 31.9971 32.1762 30.1758 28.8594 30.1758C28.3201 30.1758 27.8828 30.613 27.8828 31.1523C27.8828 31.6917 28.3201 32.1289 28.8594 32.1289C31.4278 32.1289 33.641 33.5362 34.8065 35.5929Z" fill="black"/>
</g>
<defs>
<filter id="filter0_i" x="-355" y="-175" width="1000" height="646" filterUnits="userSpaceOnUse" color-interpolation-filters="sRGB">
<feFlood flood-opacity="0" result="BackgroundImageFix"/>
<feBlend mode="normal" in="SourceGraphic" in2="BackgroundImageFix" result="shape"/>
<feColorMatrix in="SourceAlpha" type="matrix" values="0 0 0 0 0 0 0 0 0 0 0 0 0 0 0 0 0 0 127 0" result="hardAlpha"/>
<feOffset dy="-1"/>
<feComposite in2="hardAlpha" operator="arithmetic" k2="-1" k3="1"/>
<feColorMatrix type="matrix" values="0 0 0 0 0.941176 0 0 0 0 0.941176 0 0 0 0 0.941176 0 0 0 1 0"/>
<feBlend mode="normal" in2="shape" result="effect1_innerShadow"/>
</filter>
<filter id="filter1_d" x="-97" y="-29" width="240" height="186" filterUnits="userSpaceOnUse" color-interpolation-filters="sRGB">
<feFlood flood-opacity="0" result="BackgroundImageFix"/>
<feColorMatrix in="SourceAlpha" type="matrix" values="0 0 0 0 0 0 0 0 0 0 0 0 0 0 0 0 0 0 127 0"/>
<feOffset dy="5"/>
<feGaussianBlur stdDeviation="5"/>
<feColorMatrix type="matrix" values="0 0 0 0 0 0 0 0 0 0 0 0 0 0 0 0 0 0 0.05 0"/>
<feBlend mode="normal" in2="BackgroundImageFix" result="effect1_dropShadow"/>
<feBlend mode="normal" in="SourceGraphic" in2="effect1_dropShadow" result="shape"/>
</filter>
</defs>
</svg>
